<mxfile host="app.diagrams.net" modified="2022-02-25T04:43:31.360Z" agent="5.0 (Windows NT 10.0; Win64; x64) AppleWebKit/537.36 (KHTML, like Gecko) Chrome/98.0.4758.102 Safari/537.36" etag="G5ZilM4HcaAesFCwO6Tj" version="16.6.4" type="github">
  <diagram id="t5013ClFBceo3AWYJ7qr" name="第 1 页">
    <mxGraphModel dx="845" dy="595" grid="1" gridSize="10" guides="1" tooltips="1" connect="1" arrows="1" fold="1" page="1" pageScale="1" pageWidth="827" pageHeight="1169" math="0" shadow="0">
      <root>
        <mxCell id="0" />
        <mxCell id="1" parent="0" />
        <mxCell id="a7ovbASMTijBWr023Lwf-74" value="" style="rounded=0;whiteSpace=wrap;html=1;fontFamily=Times New Roman;" vertex="1" parent="1">
          <mxGeometry x="480" y="90" width="140" height="310" as="geometry" />
        </mxCell>
        <mxCell id="a7ovbASMTijBWr023Lwf-71" value="" style="rounded=0;whiteSpace=wrap;html=1;fontFamily=Times New Roman;" vertex="1" parent="1">
          <mxGeometry x="60" y="90" width="140" height="310" as="geometry" />
        </mxCell>
        <mxCell id="a7ovbASMTijBWr023Lwf-48" style="edgeStyle=orthogonalEdgeStyle;rounded=0;orthogonalLoop=1;jettySize=auto;html=1;exitX=1;exitY=0.5;exitDx=0;exitDy=0;fontFamily=Times New Roman;" edge="1" parent="1" source="a7ovbASMTijBWr023Lwf-34" target="a7ovbASMTijBWr023Lwf-38">
          <mxGeometry relative="1" as="geometry" />
        </mxCell>
        <mxCell id="a7ovbASMTijBWr023Lwf-34" value="&lt;h4&gt;a&lt;/h4&gt;" style="rounded=1;whiteSpace=wrap;html=1;" vertex="1" parent="1">
          <mxGeometry x="70" y="190" width="90" height="40" as="geometry" />
        </mxCell>
        <mxCell id="a7ovbASMTijBWr023Lwf-57" style="edgeStyle=orthogonalEdgeStyle;rounded=0;orthogonalLoop=1;jettySize=auto;html=1;exitX=1;exitY=0.5;exitDx=0;exitDy=0;entryX=0;entryY=0.5;entryDx=0;entryDy=0;fontFamily=Times New Roman;startArrow=none;" edge="1" parent="1" source="a7ovbASMTijBWr023Lwf-64" target="a7ovbASMTijBWr023Lwf-54">
          <mxGeometry relative="1" as="geometry" />
        </mxCell>
        <mxCell id="a7ovbASMTijBWr023Lwf-66" style="edgeStyle=orthogonalEdgeStyle;rounded=0;orthogonalLoop=1;jettySize=auto;html=1;exitX=1;exitY=0.5;exitDx=0;exitDy=0;entryX=0;entryY=0.5;entryDx=0;entryDy=0;fontFamily=Times New Roman;" edge="1" parent="1" source="a7ovbASMTijBWr023Lwf-38" target="a7ovbASMTijBWr023Lwf-64">
          <mxGeometry relative="1" as="geometry" />
        </mxCell>
        <mxCell id="a7ovbASMTijBWr023Lwf-68" style="edgeStyle=orthogonalEdgeStyle;rounded=0;orthogonalLoop=1;jettySize=auto;html=1;exitX=0.5;exitY=0;exitDx=0;exitDy=0;entryX=0;entryY=0.5;entryDx=0;entryDy=0;fontFamily=Times New Roman;" edge="1" parent="1" source="a7ovbASMTijBWr023Lwf-38" target="a7ovbASMTijBWr023Lwf-67">
          <mxGeometry relative="1" as="geometry" />
        </mxCell>
        <mxCell id="a7ovbASMTijBWr023Lwf-38" value="&lt;h4&gt;中间字段&lt;/h4&gt;" style="rounded=1;whiteSpace=wrap;html=1;" vertex="1" parent="1">
          <mxGeometry x="230" y="190" width="90" height="40" as="geometry" />
        </mxCell>
        <mxCell id="a7ovbASMTijBWr023Lwf-45" value="&lt;h3&gt;算子1&lt;/h3&gt;" style="rounded=1;whiteSpace=wrap;html=1;fontFamily=Times New Roman;strokeColor=none;" vertex="1" parent="1">
          <mxGeometry x="310" y="40" width="56" height="20" as="geometry" />
        </mxCell>
        <mxCell id="a7ovbASMTijBWr023Lwf-54" value="&lt;h4&gt;B&lt;/h4&gt;" style="rounded=1;whiteSpace=wrap;html=1;" vertex="1" parent="1">
          <mxGeometry x="500" y="190" width="90" height="40" as="geometry" />
        </mxCell>
        <mxCell id="a7ovbASMTijBWr023Lwf-62" style="edgeStyle=orthogonalEdgeStyle;rounded=0;orthogonalLoop=1;jettySize=auto;html=1;exitX=1;exitY=0.5;exitDx=0;exitDy=0;entryX=0;entryY=0.5;entryDx=0;entryDy=0;fontFamily=Times New Roman;" edge="1" parent="1" source="a7ovbASMTijBWr023Lwf-60" target="a7ovbASMTijBWr023Lwf-61">
          <mxGeometry relative="1" as="geometry" />
        </mxCell>
        <mxCell id="a7ovbASMTijBWr023Lwf-63" style="edgeStyle=orthogonalEdgeStyle;rounded=0;orthogonalLoop=1;jettySize=auto;html=1;exitX=1;exitY=0.25;exitDx=0;exitDy=0;entryX=0.5;entryY=1;entryDx=0;entryDy=0;fontFamily=Times New Roman;" edge="1" parent="1" source="a7ovbASMTijBWr023Lwf-60" target="a7ovbASMTijBWr023Lwf-38">
          <mxGeometry relative="1" as="geometry" />
        </mxCell>
        <mxCell id="a7ovbASMTijBWr023Lwf-60" value="&lt;h4&gt;b&lt;/h4&gt;" style="rounded=1;whiteSpace=wrap;html=1;" vertex="1" parent="1">
          <mxGeometry x="70" y="250" width="90" height="40" as="geometry" />
        </mxCell>
        <mxCell id="a7ovbASMTijBWr023Lwf-61" value="&lt;h4&gt;C&lt;/h4&gt;" style="rounded=1;whiteSpace=wrap;html=1;" vertex="1" parent="1">
          <mxGeometry x="500" y="250" width="90" height="40" as="geometry" />
        </mxCell>
        <mxCell id="a7ovbASMTijBWr023Lwf-70" style="edgeStyle=orthogonalEdgeStyle;rounded=0;orthogonalLoop=1;jettySize=auto;html=1;exitX=0.5;exitY=1;exitDx=0;exitDy=0;entryX=0;entryY=0.5;entryDx=0;entryDy=0;fontFamily=Times New Roman;" edge="1" parent="1" source="a7ovbASMTijBWr023Lwf-64" target="a7ovbASMTijBWr023Lwf-69">
          <mxGeometry relative="1" as="geometry" />
        </mxCell>
        <mxCell id="a7ovbASMTijBWr023Lwf-64" value="&lt;h4&gt;中间字段&lt;/h4&gt;" style="rounded=1;whiteSpace=wrap;html=1;" vertex="1" parent="1">
          <mxGeometry x="366" y="190" width="90" height="40" as="geometry" />
        </mxCell>
        <mxCell id="a7ovbASMTijBWr023Lwf-67" value="&lt;h4&gt;A&lt;/h4&gt;" style="rounded=1;whiteSpace=wrap;html=1;" vertex="1" parent="1">
          <mxGeometry x="500" y="130" width="90" height="40" as="geometry" />
        </mxCell>
        <mxCell id="a7ovbASMTijBWr023Lwf-69" value="&lt;h4&gt;D&lt;/h4&gt;" style="rounded=1;whiteSpace=wrap;html=1;" vertex="1" parent="1">
          <mxGeometry x="500" y="320" width="90" height="40" as="geometry" />
        </mxCell>
        <mxCell id="a7ovbASMTijBWr023Lwf-72" value="&lt;h4&gt;c&lt;/h4&gt;" style="rounded=1;whiteSpace=wrap;html=1;" vertex="1" parent="1">
          <mxGeometry x="70" y="310" width="90" height="40" as="geometry" />
        </mxCell>
        <mxCell id="a7ovbASMTijBWr023Lwf-73" value="&lt;h2&gt;输入字段&lt;/h2&gt;" style="text;html=1;strokeColor=none;fillColor=none;align=center;verticalAlign=middle;whiteSpace=wrap;rounded=0;fontFamily=Times New Roman;" vertex="1" parent="1">
          <mxGeometry x="87.5" y="50" width="85" height="25" as="geometry" />
        </mxCell>
        <mxCell id="a7ovbASMTijBWr023Lwf-75" value="&lt;h2&gt;输出字段&lt;/h2&gt;" style="text;html=1;strokeColor=none;fillColor=none;align=center;verticalAlign=middle;whiteSpace=wrap;rounded=0;fontFamily=Times New Roman;" vertex="1" parent="1">
          <mxGeometry x="502.5" y="50" width="85" height="25" as="geometry" />
        </mxCell>
      </root>
    </mxGraphModel>
  </diagram>
</mxfile>
